<?xml version="1.0" encoding="utf-8"?>
<!-- Generator: Adobe Illustrator 27.9.0, SVG Export Plug-In . SVG Version: 6.00 Build 0)  -->
<svg version="1.1" id="Logo_00000158727625646119494500000015711314265259652764_"
	 xmlns="http://www.w3.org/2000/svg" xmlns:xlink="http://www.w3.org/1999/xlink" x="0px" y="0px" viewBox="0 0 700 700"
	 style="enable-background:new 0 0 700 700;" xml:space="preserve">
<style type="text/css">
	.st0{fill:#0866FF;}
	.st1{fill:#FFFFFF;}
</style>
<g id="Logo">
	<path id="Initiator" class="st0" d="M600,350c0-138.07-111.93-250-250-250S100,211.93,100,350c0,117.24,80.72,215.62,189.61,242.64
		V426.4h-51.55V350h51.55v-32.92c0-85.09,38.51-124.53,122.05-124.53c15.84,0,43.17,3.11,54.35,6.21v69.25
		c-5.9-0.62-16.15-0.93-28.88-0.93c-40.99,0-56.83,15.53-56.83,55.9V350h81.66l-14.03,76.4h-67.63v171.77
		C504.07,583.22,600,477.82,600,350z"/>
	<path id="F" class="st1" d="M447.92,426.4l14.03-76.4h-81.66v-27.02c0-40.37,15.84-55.9,56.83-55.9c12.73,0,22.98,0.31,28.88,0.93
		v-69.25c-11.18-3.11-38.51-6.21-54.35-6.21c-83.54,0-122.05,39.44-122.05,124.53V350h-51.55v76.4h51.55v166.24
		c19.34,4.8,39.57,7.36,60.39,7.36c10.25,0,20.36-0.63,30.29-1.83V426.4H447.92z"/>
</g>
</svg>
