<?xml version="1.0" encoding="UTF-8" standalone="no"?>
<svg
   xmlns:dc="http://purl.org/dc/elements/1.1/"
   xmlns:cc="http://creativecommons.org/ns#"
   xmlns:rdf="http://www.w3.org/1999/02/22-rdf-syntax-ns#"
   xmlns:svg="http://www.w3.org/2000/svg"
   xmlns="http://www.w3.org/2000/svg"
   viewBox="0 0 1821.3333 1821.3333"
   height="1821.3333"
   width="1821.3333"
   xml:space="preserve"
   id="svg2"
   version="1.1"><metadata
     id="metadata8"><rdf:RDF><cc:Work
         rdf:about=""><dc:format>image/svg+xml</dc:format><dc:type
           rdf:resource="http://purl.org/dc/dcmitype/StillImage" /></cc:Work></rdf:RDF></metadata><defs
     id="defs6"><clipPath
       id="clipPath36"
       clipPathUnits="userSpaceOnUse"><path
         id="path34"
         d="M 0,1366 H 1366 V 0 H 0 Z" /></clipPath></defs><g
     transform="matrix(1.3333333,0,0,-1.3333333,0,1821.3333)"
     id="g10"><path
       id="path12"
       style="fill:#00a0dc;fill-opacity:1;fill-rule:nonzero;stroke:none"
       d="M 729.715,1008.187 H 601.653 v 128.062 h 128.062 z" /><path
       id="path14"
       style="fill:#00a0dc;fill-opacity:1;fill-rule:nonzero;stroke:none"
       d="M 729.715,847.194 H 601.653 v 128.062 h 128.062 z" /><path
       id="path16"
       style="fill:#00a0dc;fill-opacity:1;fill-rule:nonzero;stroke:none"
       d="M 729.715,686.202 H 601.653 v 128.062 h 128.062 z" /><path
       id="path18"
       style="fill:#00a0dc;fill-opacity:1;fill-rule:nonzero;stroke:none"
       d="M 574.21,847.194 H 446.148 V 975.256 H 574.21 Z" /><path
       id="path20"
       style="fill:#00a0dc;fill-opacity:1;fill-rule:nonzero;stroke:none"
       d="M 574.21,686.202 H 446.148 V 814.264 H 574.21 Z" /><path
       id="path22"
       style="fill:#00a0dc;fill-opacity:1;fill-rule:nonzero;stroke:none"
       d="M 418.706,847.194 H 290.644 v 128.062 h 128.062 z" /><path
       id="path24"
       style="fill:#00a0dc;fill-opacity:1;fill-rule:nonzero;stroke:none"
       d="M 418.706,686.202 H 290.644 v 128.062 h 128.062 z" /><path
       id="path26"
       style="fill:#00a0dc;fill-opacity:1;fill-rule:nonzero;stroke:none"
       d="M 265.031,686.202 H 136.968 v 128.062 h 128.063 z" /><path
       id="path28"
       style="fill:#00a0dc;fill-opacity:1;fill-rule:nonzero;stroke:none"
       d="M 885.22,686.202 H 757.157 V 814.264 H 885.22 Z" /><g
       id="g30"><g
         clip-path="url(#clipPath36)"
         id="g32"><g
           transform="translate(483.3027,229.75)"
           id="g38"><path
             id="path40"
             style="fill:#00a0dc;fill-opacity:1;fill-rule:nonzero;stroke:none"
             d="m 0,0 c -471.653,0 -416.769,415.289 -416.769,415.289 h 787.426 c 132.795,0 176.702,42.077 176.702,42.077 0,0 -75.008,96.962 12.806,214.048 98.791,-56.714 95.133,-140.869 95.133,-140.869 0,0 100.62,32.93 162.822,-23.783 C 783.36,393.335 629.685,400.653 629.685,400.653 629.685,400.653 486.986,0 0,0" /></g></g></g></g></svg>